<svg width="224" height="224" viewBox="0 0 224 224" fill="none" xmlns="http://www.w3.org/2000/svg">
<g clip-path="url(#clip0)">
<path d="M114.702 34.4985L31 94.9985L37.5 103.999L114.702 48.1652L191.5 103.999L198 95.4985L114.702 34.4985Z" fill="#791BE5"/>
<ellipse rx="28.2928" ry="54.4841" transform="matrix(0.957879 -0.465292 0.925299 0.134619 111.5 182.985)" fill="#C4C4C4" fill-opacity="0.5"/>
<ellipse cx="86.502" cy="168.999" rx="7.5" ry="8" fill="black"/>
<circle cx="139.002" cy="168.999" r="8" fill="black"/>
<path d="M57.8107 107.999L55.002 95.9985H175.002L171.955 107.999H57.8107Z" fill="#791BE5"/>
<path d="M67.0711 157.999H157.373L168.002 123.532H73.6049L70.4842 110.999H58.002L62.6829 136.066H153.179L150.059 145.465H64.2431L67.0711 157.999Z" fill="#791BE5"/>
</g>
<defs>
<clipPath id="clip0">
<rect width="199" height="199" fill="white" transform="translate(12 12)"/>
</clipPath>
</defs>
</svg>
